<svg width="1360" height="164" viewBox="0 0 1360 164" fill="none" xmlns="http://www.w3.org/2000/svg">
<path d="M64.5502 157.24L54.6846 157.157C50.9678 157.157 47.3367 156.703 43.8083 155.797C41.6674 155.243 40.5883 150.158 40.5883 140.557V43.7975C41.4105 36.4965 46.3262 30.6893 55.4211 26.3926C64.379 22.0791 79.4172 19.9139 100.553 19.8972V2.12292C80.7532 2.12292 64.9442 6.10072 53.0917 14.0563C47.6964 17.6817 43.5343 21.8609 40.6054 26.6107V1.95508L0.0466309 10.0785V15.248L8.3879 13.7206C14.3484 12.5961 18.2022 12.0255 19.9492 12.0255C21.4051 12.0255 22.4499 13.0996 23.0665 15.2648C23.6831 17.4467 23.9914 21.2231 23.9914 26.594V140.574C23.9914 150.174 22.9295 155.243 20.8056 155.814C17.2601 156.72 13.629 157.173 9.91228 157.173L0.0466309 157.257V162.494H64.5674V157.257L64.5502 157.24Z" fill="white"/>
<path d="M115.573 156.367C107.044 156.367 100.33 151.231 95.4823 140.943C91.0976 131.644 88.9052 120.852 88.9052 98.8987C88.9052 76.9453 91.0976 65.9518 95.4823 56.8213C100.449 46.4656 107.044 41.2961 115.231 41.2961C123.966 41.2961 130.766 46.4656 135.699 56.8213C140.135 66.0189 142.361 76.7942 142.361 98.8987C142.361 121.003 140.135 131.644 135.699 140.943C130.851 151.231 124.137 156.367 115.59 156.367M148.339 143.343C156.509 131.107 160.585 119.627 160.585 99.1841C160.585 78.7412 156.509 66.7742 148.39 54.4548C140.255 42.1353 129.344 35.9756 115.625 35.9756C101.905 35.9756 90.9948 42.1353 82.8762 54.4548C74.7405 66.7742 70.6812 78.4726 70.6812 99.2512C70.6812 120.03 74.7747 131.09 82.9618 143.343C91.149 155.561 102.025 161.671 115.642 161.671C129.259 161.671 140.203 155.561 148.356 143.343" fill="white"/>
<path d="M205.014 57.4073C209.982 47.0684 216.559 41.8821 224.763 41.8821C233.481 41.8821 240.281 47.0684 245.196 57.4073C249.65 66.6049 251.876 77.3802 251.876 99.4679C251.876 121.556 249.65 132.213 245.196 141.529C240.366 151.817 233.652 156.953 225.123 156.953C216.593 156.953 209.862 151.817 205.014 141.529C200.613 132.213 198.437 121.438 198.437 99.4679C198.437 77.4977 200.613 66.521 205.014 57.4073ZM176.959 7.44138C179.083 8.01203 180.162 13.0976 180.162 22.6812V136.678C180.162 142.049 179.854 145.808 179.237 147.99C178.62 150.172 177.576 151.263 176.12 151.263C174.356 151.263 170.519 150.693 164.541 149.568L156.183 148.041V153.21L196.759 161.334V149.518C204.329 158.027 213.801 162.29 225.123 162.29C238.791 162.29 249.701 156.181 257.854 143.979C266.007 131.744 270.083 120.263 270.083 99.8204C270.083 79.3775 266.024 67.4105 257.905 55.0911C249.77 42.7717 238.842 36.6287 225.123 36.6287C213.75 36.6287 204.295 40.8751 196.759 49.3845V22.7148C196.759 13.1311 197.838 8.0456 199.979 7.47495C203.507 6.5854 207.138 6.11544 210.838 6.11544L220.704 6.03152V0.794922H156.183V6.03152L166.049 6.11544C169.765 6.11544 173.396 6.56861 176.942 7.47495" fill="white"/>
<path d="M306.087 56.9274C311.054 46.5884 317.648 41.419 325.835 41.419C334.553 41.419 341.37 46.5884 346.286 56.9274C350.722 66.125 352.966 76.9171 352.966 99.0048C352.966 121.093 350.739 131.75 346.286 141.065C341.421 151.354 334.742 156.49 326.178 156.49C317.614 156.49 310.951 151.354 306.087 141.065C301.702 131.75 299.492 120.975 299.492 99.0048C299.492 77.0346 301.685 66.0746 306.087 56.9274ZM326.229 161.794C339.897 161.794 350.808 155.684 358.943 143.466C367.096 131.23 371.19 119.75 371.19 99.3069C371.19 78.864 367.13 66.8971 358.995 54.5944C350.876 42.2582 339.966 36.1152 326.229 36.1152C312.492 36.1152 301.599 42.2582 293.48 54.5944C285.345 66.8971 281.285 78.5955 281.285 99.3908C281.285 120.186 285.379 131.23 293.566 143.466C301.753 155.684 312.647 161.794 326.229 161.794Z" fill="white"/>
<path d="M385.235 10.3536C386.708 10.3536 387.735 11.4446 388.369 13.6265C388.951 15.6405 389.243 19.0645 389.277 23.8647H389.208V36.2177H365.503V41.4711L375.369 41.555C379.086 41.555 382.717 42.0082 386.245 42.9145C387.821 43.3173 388.797 46.1538 389.208 51.3904V162.484L429.784 154.36V149.207L421.443 150.735C415.482 151.859 411.629 152.413 409.882 152.413C408.426 152.413 407.381 151.322 406.747 149.157C406.182 147.126 405.874 143.719 405.839 138.919H405.908V58.1376H406.079C406.079 48.5371 407.141 43.4684 409.265 42.9145C412.811 42.0082 416.442 41.555 420.158 41.555L430.024 41.4711V36.2177H405.908V0.283203L365.332 8.40665V13.5761L373.69 12.0656C379.651 10.941 383.488 10.3704 385.235 10.3704" fill="white"/>
<path d="M433.518 103.16H451.588H467.997H490.314C493.295 103.328 496.72 103.194 499.101 104.503C501.139 105.594 502.681 113.667 502.424 120.129C502.424 123.217 499.752 136.661 497.44 141.579C492.678 151.851 486.084 156.986 477.674 156.986C469.264 156.986 462.67 151.851 457.891 141.579C456.607 138.776 455.528 135.52 454.637 131.743H438.931C440.712 135.973 442.922 139.934 445.593 143.979C453.661 156.198 464.366 162.307 477.742 162.307C491.119 162.307 501.91 156.198 509.926 143.979C515.407 135.62 519.004 127.615 520.751 116.856C521.162 113.046 521.179 109.454 521.025 106.416C520.802 101.7 520.168 98.3265 520.014 97.588C520.014 97.4873 504.65 97.5208 504.65 97.588H477.674L467.226 97.6551C465.787 97.6551 464.349 97.5712 462.944 97.4201C461.077 97.2523 459.244 97.0173 457.446 96.6313C456.915 96.5138 456.435 96.4299 455.973 96.2453C453.815 95.4061 452.719 90.6394 452.667 81.1397C453.695 70.8343 455.442 62.4926 458.011 57.1218C462.858 46.8332 469.572 41.6973 478.102 41.6973C486.632 41.6973 493.346 46.8332 498.21 57.1218C499.752 60.3779 500.985 64.255 501.978 68.8538H518.301C516.366 63.9025 513.865 59.354 510.748 54.7217C502.561 42.5029 491.685 36.3936 478.068 36.3936C464.451 36.3936 453.507 42.5029 445.354 54.7217C437.629 66.2858 433.57 77.2122 433.159 95.641C433.039 95.7753 432.765 103.16 432.765 103.16H433.553H433.518Z" fill="white"/>
<path d="M607.332 152.706C598.1 152.706 590.41 149.467 584.244 142.972C578.078 136.476 574.977 128.403 574.977 118.702C574.977 106.802 580.544 97.6213 591.643 91.1259C602.039 108.766 614.491 127.111 628.999 146.211C622.079 150.524 614.868 152.69 607.332 152.69M608.942 40.5726C617.283 40.5726 621.462 46.0945 621.462 57.1383C621.462 69.3235 616.598 78.7897 606.835 85.5033C605.499 83.0696 604.489 81.2569 603.838 80.0485C598.562 70.683 595.925 63.0127 595.925 57.0544C595.925 46.0609 600.258 40.5558 608.942 40.5558M633.675 94.9862V100.021L635.216 100.105C639.412 100.374 641.793 100.508 642.324 100.508C644.654 100.508 646.058 101.012 646.606 102.019C647.137 103.043 647.411 105.678 647.411 109.924C647.411 119.86 645.013 128.42 640.2 135.553C628.399 119.39 619.133 105.745 612.385 94.6673C611.734 93.526 610.723 91.8308 609.302 89.5482C627.32 83.0696 636.312 73.0999 636.312 59.7063C636.312 52.4388 633.726 46.6316 628.588 42.2174C623.432 37.8032 616.615 35.6045 608.086 35.6045C600.001 35.6045 593.287 38.1053 587.96 43.1237C582.616 48.1086 579.944 54.3858 579.944 61.8882C579.944 68.8703 583.045 77.1449 589.228 86.7285C569.068 93.2239 558.997 105.359 558.997 123.15C558.997 133.975 562.885 143.106 570.678 150.575C578.471 158.044 587.995 161.77 599.265 161.77C609.713 161.77 625.642 156.181 636.86 147.352L642.444 141.981C652.378 129.343 657.654 118.685 658.681 107.826C659.058 103.831 658.972 101.616 659.538 101.196C660.103 100.793 663.529 100.441 669.849 100.122L671.544 100.038V95.003H633.606L633.675 94.9862Z" fill="white"/>
<path d="M786.156 105.939C781.309 116.228 774.595 121.381 766.048 121.381C757.501 121.381 750.804 116.228 745.94 105.939C741.555 96.6242 739.363 85.8657 739.363 63.8787C739.363 41.8916 741.555 30.9485 745.94 21.8348C750.907 11.4791 757.501 6.3096 765.706 6.3096C774.441 6.3096 781.241 11.4623 786.156 21.8348C790.61 31.0324 792.836 41.7909 792.836 63.8787C792.836 85.9664 790.61 96.641 786.156 105.939ZM766.1 1.00586C754.538 1.00586 744.981 5.36969 737.41 14.1141V1.92898L696.834 10.0524V15.2051L705.176 13.6778C711.136 12.5532 714.99 11.9994 716.737 11.9994C718.193 11.9994 719.238 13.0903 719.854 15.2555C720.471 17.4206 720.779 21.197 720.779 26.5679V140.548C720.779 150.148 719.717 155.2 717.576 155.771C714.048 156.694 710.417 157.13 706.7 157.13L696.834 157.214V162.485H761.355V157.214L751.49 157.13C747.773 157.13 744.159 156.694 740.613 155.771C738.472 155.2 737.41 150.132 737.41 140.548V113.526C745.032 122.287 754.607 126.684 766.1 126.684C779.733 126.684 790.661 120.558 798.814 108.339C806.967 96.1039 811.06 84.6404 811.06 64.1975C811.06 43.7546 807.001 31.7877 798.865 19.485C790.747 7.14879 779.819 1.00586 766.117 1.00586" fill="white"/>
<path d="M845.008 57.2276C849.856 46.9223 856.57 41.7864 865.117 41.7864C873.663 41.7864 880.36 46.9223 885.208 57.2276C888.633 64.4615 890.894 78.4258 891.391 89.4361C891.682 94.1356 889.935 96.0154 888.342 96.8882C885.053 98.7512 880.96 98.298 877.106 98.298L838.671 98.3652C839.151 80.1713 841.155 65.3175 845.026 57.2276M863.267 157.764V157.814C855.337 157.512 849.068 152.527 844.495 142.843C840.624 134.77 838.5 121.745 838.106 103.786H909.872V98.8855C909.872 98.8855 909.992 95.6294 909.923 94.0852C909.307 76.6299 905.247 66.0392 897.745 54.8107C889.558 42.5752 878.665 36.4658 865.065 36.4658C851.466 36.4658 841.343 43.1962 832.351 54.8107C821.201 69.1946 820.31 98.9694 820.31 98.9694C820.498 118.17 824.455 133.578 832.197 145.192C840.127 157.059 850.729 163.017 863.986 163.017V162.916C876.027 162.715 885.841 157.579 893.412 147.458H880.206C875.804 154.323 870.135 157.764 863.25 157.764" fill="white"/>
<path d="M1026.24 155.324C1024.11 154.77 1023.03 149.685 1023.03 140.084V98.0906C1023.03 98.0906 1021.66 69.0375 1010.91 53.6634C1002.46 41.6125 991.827 35.6877 978.227 35.6877C966.854 35.6877 957.383 39.9509 949.829 48.4268V29.377L909.271 37.5004V42.6531L917.629 41.1257C923.589 40.0012 927.443 39.4306 929.173 39.4306C930.629 39.4306 931.691 40.5215 932.29 42.7034C932.924 44.8686 933.215 48.645 933.215 53.9991V139.698C933.215 149.282 932.153 154.351 930.029 154.938C926.484 155.828 922.853 156.281 919.153 156.281L909.288 156.365V161.601H973.791V156.365L963.926 156.281C960.226 156.281 956.595 155.828 953.049 154.938C950.926 154.351 949.846 149.282 949.846 139.698V97.8556C950.275 79.41 954.283 64.5898 958.188 56.416C963.035 46.1106 969.749 40.9915 978.279 40.9915C986.808 40.9915 995.098 44.9525 999.963 55.2411C1003.73 63.2806 1005.91 76.1204 1006.68 93.3072L1006.44 140.084C1006.44 149.685 1005.38 154.753 1003.23 155.324C999.706 156.23 996.075 156.683 992.375 156.683L982.509 156.767V162.004H1047.03V156.767L1037.16 156.683C1033.45 156.683 1029.82 156.23 1026.29 155.324" fill="white"/>
<path d="M1084.85 41.0118C1093.58 41.0118 1100.4 46.1644 1105.32 56.5202C1108.19 62.4953 1110.15 69.1753 1111.16 79.145H1128.54C1126.64 69.4606 1123.15 61.9414 1118.03 54.1704C1109.89 41.8342 1098.98 35.708 1085.26 35.708C1071.54 35.708 1060.63 41.8509 1052.51 54.1704C1044.38 66.473 1040.32 78.1715 1040.32 98.9501C1040.32 119.729 1044.41 130.806 1052.6 143.042C1060.8 155.26 1071.68 161.37 1085.28 161.37C1098.88 161.37 1108.9 155.747 1116.95 144.535H1103.26C1098.64 152.206 1092.63 156.066 1085.24 156.066C1076.7 156.066 1070.02 150.93 1065.15 140.625C1060.77 131.326 1058.58 120.551 1058.58 98.564C1058.58 76.577 1060.77 65.6338 1065.15 56.5034C1070.12 46.1476 1076.71 40.995 1084.9 40.995" fill="white"/>
<path d="M1172.65 156.113C1170.52 155.542 1169.44 150.474 1169.44 140.873V28.1855L1128.88 36.309V41.4617L1137.23 39.9343C1143.19 38.8098 1147.02 38.2559 1148.79 38.2559C1150.24 38.2559 1151.29 39.3469 1151.9 41.512C1152.52 43.6772 1152.83 47.4535 1152.83 52.8244V140.873C1152.83 150.474 1151.77 155.542 1149.63 156.113C1146.08 157.019 1142.45 157.456 1138.75 157.456L1128.88 157.54V162.793H1193.41V157.54L1183.54 157.456C1179.82 157.456 1176.21 157.019 1172.65 156.113Z" fill="white"/>
<path d="M1247.87 153.876C1245.73 153.322 1244.67 148.219 1244.67 138.636V0L1204.11 8.14023V13.2929L1212.45 11.7823C1218.41 10.641 1222.25 10.0872 1224 10.0872C1225.45 10.0872 1226.5 11.1781 1227.11 13.3433C1227.73 15.5252 1228.04 19.3016 1228.04 24.6557V138.636C1228.04 148.219 1226.98 153.305 1224.84 153.876C1221.29 154.765 1217.66 155.218 1213.96 155.218L1204.09 155.302V160.572H1268.61V155.302L1258.75 155.218C1255.03 155.218 1251.42 154.765 1247.87 153.876Z" fill="white"/>
<path d="M1150.4 9.48363C1150.4 14.4853 1154.46 18.5805 1159.46 18.5805C1164.46 18.5805 1168.52 14.4853 1168.52 9.48363C1168.52 4.48201 1164.48 0.386719 1159.46 0.386719C1154.44 0.386719 1150.4 4.46522 1150.4 9.48363Z" fill="white"/>
<path d="M1358.9 94.7511C1358.9 94.6504 1343.53 94.7007 1343.53 94.7511H1316.56L1306.09 94.8182C1304.65 94.8182 1303.21 94.7175 1301.79 94.5832C1299.94 94.4154 1298.11 94.1804 1296.31 93.7944C1295.76 93.6769 1295.32 93.593 1294.85 93.4083C1292.68 92.5691 1291.58 87.7857 1291.53 78.3195C1292.56 67.9974 1294.31 59.6557 1296.88 54.3016C1301.72 43.9963 1308.44 38.8604 1316.98 38.8604C1325.53 38.8604 1332.23 43.9963 1337.07 54.3016C1338.62 57.541 1339.85 61.418 1340.84 66.0169H1357.15C1355.23 61.0656 1352.73 56.5507 1349.61 51.8847C1341.42 39.666 1330.55 33.5566 1316.93 33.5566C1303.32 33.5566 1292.37 39.666 1284.22 51.8847C1276.51 63.4657 1272.43 74.3585 1272.02 92.8209C1271.9 92.9552 1271.63 100.323 1271.63 100.323H1272.4H1290.47H1306.88L1329.21 100.34C1332.19 100.491 1335.64 100.374 1338 101.666C1340.02 102.774 1341.58 110.83 1341.32 117.292C1341.32 120.363 1338.65 133.841 1336.34 138.742C1331.56 149.03 1324.98 154.166 1316.56 154.166C1308.13 154.166 1301.57 149.03 1296.79 138.742C1295.49 135.956 1294.41 132.7 1293.52 128.923H1277.83C1279.61 133.153 1281.82 137.097 1284.47 141.142C1292.54 153.361 1303.25 159.47 1316.62 159.47C1330 159.47 1340.77 153.361 1348.81 141.142C1354.27 132.8 1357.9 124.794 1359.63 114.036C1360.04 110.209 1360.06 106.617 1359.92 103.579C1359.68 98.8799 1359.07 95.4896 1358.93 94.7511" fill="white"/>
</svg>
