<svg width="29" height="48" viewBox="0 0 29 48" fill="none" xmlns="http://www.w3.org/2000/svg">
<path d="M24.5177 21.4564H28.0406C28.0406 21.4564 27.9606 19.2496 27.9174 18.7836C26.9686 8.98835 20.6879 4.40311 14.66 4.07907V2.5796H16.2767C16.5468 3.29968 17.2514 3.81433 18.0792 3.81433C19.1382 3.81433 20.0006 2.96929 20.0006 1.9294C20.0006 0.889516 19.1361 0.0444758 18.077 0.0444758C17.2514 0.0444758 16.5468 0.559125 16.2745 1.27921H14.6579V0.650194C14.6579 0.290152 14.3618 0 13.9944 0C13.6269 0 13.3308 0.290152 13.3308 0.650194V1.27921H11.712C11.4419 0.559125 10.7373 0.0444758 9.90952 0.0444758C8.85049 0.0444758 7.98813 0.889516 7.98813 1.9294C7.98813 2.96929 8.85049 3.81433 9.90952 3.81433C10.7351 3.81433 11.4397 3.29968 11.712 2.5796H13.3308V4.07695C10.1775 4.24215 7.20358 5.54465 4.891 7.78327C2.13968 10.4497 0.473323 14.2873 0.0713226 18.8832C0.0302581 19.3449 0 21.4585 0 21.4585H3.47103V22.7144H0.0453871L1.80036 42.3791H2.9091C2.3061 42.9742 1.93219 43.7939 1.93219 44.6961C1.93436 46.5154 3.44294 47.9958 5.293 48C6.5271 47.9979 7.60774 47.3392 8.19345 46.3671C8.77916 47.3413 9.85765 47.9979 11.0874 48C12.341 47.9979 13.4346 47.3202 14.0138 46.3226C14.606 47.2736 15.6715 47.911 16.8862 47.9132C18.103 47.911 19.1685 47.2736 19.7607 46.3226C20.3399 47.3202 21.4314 47.9979 22.6806 48C24.535 47.9958 26.0414 46.5154 26.0479 44.7003C26.0457 43.796 25.6718 42.9742 25.0688 42.3791H26.1884L27.9433 22.7144H24.5177V21.4585V21.4564ZM1.12387 20.372C1.13468 19.8616 1.15197 19.2199 1.17358 18.9742C2.00784 9.43523 8.21507 5.15284 13.9944 5.14225C21.9328 5.15708 26.1538 12.0551 26.8151 18.8853C26.8411 19.15 26.8713 19.8849 26.8929 20.372H1.12387ZM2.814 41.2947L1.25139 23.7967H4.7851L6.34771 41.2947H2.814ZM5.29516 46.9156C4.0481 46.9135 3.03877 45.9245 3.03661 44.6982C3.03661 43.4741 4.0481 42.485 5.29516 42.4829C6.54007 42.4829 7.55155 43.4741 7.55371 44.6982C7.55155 45.9245 6.54007 46.9135 5.29516 46.9156ZM11.0896 46.9156C9.84252 46.9135 8.8332 45.9245 8.8332 44.6982C8.8332 43.4741 9.84468 42.485 11.0896 42.4829C12.3366 42.4829 13.346 43.4741 13.3481 44.6982C13.3481 45.9245 12.3366 46.9135 11.0896 46.9156ZM16.8883 46.8288C15.6413 46.8267 14.6319 45.8355 14.6276 44.6092C14.6319 43.3872 15.6391 42.396 16.8883 42.3939C18.1332 42.396 19.1426 43.3872 19.1426 44.6092C19.1426 45.8355 18.1311 46.8246 16.8883 46.8288ZM7.45861 41.2947L5.896 23.7967H22.311L20.7484 41.2947H7.45645H7.45861ZM22.6827 46.9156C21.4357 46.9135 20.4264 45.9245 20.4242 44.6982C20.4264 43.4741 21.4357 42.485 22.6827 42.4829C23.9276 42.4829 24.937 43.4741 24.9413 44.6982C24.937 45.9245 23.9298 46.9135 22.6827 46.9156ZM26.7352 23.7967L25.1726 41.2947H21.8593L23.4219 23.7967H26.7352Z" fill="white"/>
<path d="M9.7756 31.2651L10.3872 38.9721H17.6989L18.2997 31.2312L14.029 24.9453L9.77344 31.2651H9.7756ZM16.4994 35.5602L14.0398 37.3837L11.5932 35.5793C11.04 34.9969 11.04 33.9739 11.5932 33.3894C11.8656 33.1035 12.2135 32.951 12.5939 32.951C12.9743 32.951 13.3266 33.1077 13.5946 33.3894L14.042 33.8701L14.4894 33.3915C14.7639 33.1077 15.1205 32.951 15.4901 32.951C15.8596 32.951 16.2162 33.1077 16.4864 33.3915C16.7458 33.6583 16.9057 34.0904 16.9057 34.5161C16.9057 34.9143 16.7544 35.2912 16.5037 35.5602H16.4994ZM17.0311 31.2736H11.0681L13.1451 28.192H14.9368L17.0311 31.2736Z" fill="white"/>
<path d="M19.324 9.79688C16.9833 9.79688 15.0879 11.6627 15.0879 13.9543C15.0879 16.2459 16.9833 18.1117 19.324 18.1117C21.6647 18.1117 23.5602 16.2543 23.5602 13.9543C23.5602 11.6543 21.6647 9.79688 19.324 9.79688ZM19.3197 17.038C17.5755 17.0337 16.1707 15.655 16.1664 13.9543C16.1707 12.2536 17.5755 10.8749 19.3197 10.8706C21.0617 10.8728 22.4665 12.2515 22.4687 13.9543C22.4665 15.655 21.0617 17.0337 19.3197 17.038Z" fill="white"/>
<path d="M19.3254 12.4727C18.489 12.4727 17.8147 13.1356 17.8125 13.9509C17.8147 14.7663 18.489 15.4271 19.3254 15.4292C20.1597 15.4292 20.834 14.7663 20.8361 13.9509C20.8361 13.1356 20.1618 12.4748 19.3254 12.4727Z" fill="white"/>
<path d="M9.01993 11.082C7.40545 11.082 6.0957 12.3697 6.0957 13.9518C6.0957 15.5338 7.40545 16.8215 9.01993 16.8215C10.6344 16.8215 11.9442 15.5381 11.9442 13.9518C11.9442 12.3655 10.6344 11.082 9.01993 11.082ZM9.01993 15.7605C7.99764 15.7583 7.17419 14.9493 7.17203 13.9518C7.17419 12.9543 7.99764 12.1473 9.01993 12.1452C10.0401 12.1452 10.8635 12.9543 10.8657 13.9518C10.8657 14.9493 10.0401 15.7562 9.01993 15.7605Z" fill="white"/>
</svg>
